<svg width="1140" height="1308" viewBox="0 0 1140 1308" fill="none" xmlns="http://www.w3.org/2000/svg">
	<g opacity="0.2" filter="url(#filter0_f_5_80)">
		<path d="M1623.94 731.526L1676.82 612.749C1699.02 562.893 1676.6 504.486 1626.74 482.288L1142.13 266.529C811.518 119.329 424.174 268.015 276.973 598.633L41.1165 1128.38C18.9212 1178.23 41.341 1236.64 91.1956 1258.84L209.972 1311.72C259.826 1333.92 318.237 1311.49 340.432 1261.64L557.253 774.653C641.366 585.732 862.706 500.768 1051.63 584.881L1493.47 781.605C1543.33 803.802 1601.74 781.377 1623.94 731.526Z" fill="#98FCE4" fill-opacity="0.02" />
		<path d="M1676.67 612.682L1623.79 731.459C1601.63 781.228 1543.31 803.615 1493.54 781.455L1051.69 584.732C862.69 500.582 641.253 585.583 557.103 774.586L340.282 1261.57C318.124 1311.34 259.81 1333.73 210.038 1311.57L91.2622 1258.69C41.4903 1236.53 19.1076 1178.21 41.2661 1128.44L277.123 598.699C424.287 268.165 811.534 119.515 1142.07 266.678L1626.67 482.438C1676.45 504.598 1698.83 562.909 1676.67 612.682Z" stroke="#98FCE4" stroke-width="0.327695" />
	</g>
	<g opacity="0.2" filter="url(#filter1_f_5_80)">
		<path d="M1307.46 875.533L1335.68 812.16C1347.52 785.56 1335.56 754.398 1308.96 742.554L1050.4 627.438C874.005 548.9 667.34 628.231 588.803 804.629L462.963 1087.27C451.121 1113.87 463.083 1145.03 489.683 1156.88L553.055 1185.09C579.654 1196.93 610.818 1184.97 622.661 1158.37L738.343 898.543C783.221 797.746 901.315 752.414 1002.11 797.292L1237.86 902.252C1264.46 914.095 1295.62 902.131 1307.46 875.533Z" fill="#98FCE4" fill-opacity="0.02" />
		<path d="M1335.53 812.094L1307.31 875.466C1295.51 901.981 1264.44 913.909 1237.92 902.102L1002.18 797.142C901.299 752.228 783.108 797.597 738.194 898.477L622.511 1158.3C610.706 1184.82 579.638 1196.75 553.121 1184.94L489.749 1156.73C463.232 1144.92 451.308 1113.85 463.113 1087.34L588.952 804.696C667.453 628.38 874.021 549.087 1050.34 627.587L1308.89 742.704C1335.41 754.51 1347.33 785.576 1335.53 812.094Z" stroke="#98FCE4" stroke-width="0.327695" />
	</g>
	<g opacity="0.2" filter="url(#filter2_f_5_80)">
		<path d="M1372.75 1149.58L1415.01 1054.66C1420.05 1043.34 1414.96 1030.08 1403.64 1025.04L978.184 835.618C903.126 802.2 815.189 835.955 781.77 911.014L652.127 1202.2C647.088 1213.52 652.178 1226.78 663.496 1231.82L750.662 1270.63C761.98 1275.66 775.241 1270.57 780.28 1259.26L875.348 1045.73C894.443 1002.84 944.693 983.552 987.583 1002.65L1343.13 1160.95C1354.45 1165.99 1367.71 1160.9 1372.75 1149.58Z" fill="#98FCE4" fill-opacity="0.02" />
		<path d="M1414.86 1054.6L1372.6 1149.51C1367.6 1160.75 1354.44 1165.8 1343.2 1160.8L987.65 1002.5C944.677 983.366 894.331 1002.69 875.198 1045.66L780.13 1259.19C775.128 1270.42 761.964 1275.48 750.729 1270.48L663.563 1231.67C652.327 1226.66 647.274 1213.5 652.276 1202.27L781.92 911.081C815.302 836.105 903.142 802.386 978.118 835.768L1403.58 1025.19C1414.81 1030.2 1419.87 1043.36 1414.86 1054.6Z" stroke="#98FCE4" stroke-width="0.327695" />
	</g>
	<defs>
		<filter id="filter0_f_5_80" x="29.1134" y="206.276" width="1659.71" height="1117.45" filterUnits="userSpaceOnUse" color-interpolation-filters="sRGB">
			<feFlood flood-opacity="0" result="BackgroundImageFix" />
			<feBlend mode="normal" in="SourceGraphic" in2="BackgroundImageFix" result="shape" />
			<feGaussianBlur stdDeviation="1.71814" result="effect1_foregroundBlur_5_80" />
		</filter>
		<filter id="filter1_f_5_80" x="454.956" y="593.688" width="888.73" height="599.41" filterUnits="userSpaceOnUse" color-interpolation-filters="sRGB">
			<feFlood flood-opacity="0" result="BackgroundImageFix" />
			<feBlend mode="normal" in="SourceGraphic" in2="BackgroundImageFix" result="shape" />
			<feGaussianBlur stdDeviation="1.71814" result="effect1_foregroundBlur_5_80" />
		</filter>
		<filter id="filter2_f_5_80" x="646.746" y="819.283" width="773.648" height="456.724" filterUnits="userSpaceOnUse" color-interpolation-filters="sRGB">
			<feFlood flood-opacity="0" result="BackgroundImageFix" />
			<feBlend mode="normal" in="SourceGraphic" in2="BackgroundImageFix" result="shape" />
			<feGaussianBlur stdDeviation="1.71814" result="effect1_foregroundBlur_5_80" />
		</filter>
	</defs>
</svg>
