<svg viewBox="0 0 1717 1742" fill="none" xmlns="http://www.w3.org/2000/svg">
	<g opacity="0.2" filter="url(#filter0_f_12_6)">
		<path d="M1623.01 731.526L1675.89 612.749C1698.09 562.893 1675.67 504.486 1625.81 482.288L1141.21 266.529C810.593 119.329 423.248 268.015 276.048 598.633L40.1907 1128.38C17.9954 1178.23 40.4152 1236.64 90.2698 1258.84L209.046 1311.72C258.9 1333.92 317.311 1311.49 339.506 1261.64L556.327 774.653C640.44 585.732 861.78 500.768 1050.7 584.881L1492.55 781.605C1542.41 803.802 1600.81 781.377 1623.01 731.526Z" fill="#98FCE4" fill-opacity="0.02" />
		<path d="M1675.74 612.682L1622.86 731.459C1600.7 781.228 1542.39 803.615 1492.62 781.455L1050.77 584.732C861.764 500.582 640.327 585.583 556.177 774.586L339.357 1261.57C317.198 1311.34 258.884 1333.73 209.112 1311.57L90.3364 1258.69C40.5645 1236.53 18.1819 1178.21 40.3404 1128.44L276.197 598.699C423.361 268.165 810.609 119.515 1141.14 266.678L1625.75 482.438C1675.52 504.598 1697.9 562.909 1675.74 612.682Z" stroke="#98FCE4" stroke-width="0.327695" />
	</g>
	<g opacity="0.2" filter="url(#filter1_f_12_6)">
		<path d="M1306.54 875.533L1334.75 812.161C1346.6 785.56 1334.63 754.398 1308.03 742.554L1049.48 627.438C873.079 548.9 666.415 628.231 587.877 804.629L462.038 1087.27C450.195 1113.87 462.157 1145.03 488.757 1156.88L552.129 1185.09C578.728 1196.93 609.893 1184.97 621.735 1158.37L737.418 898.543C782.295 797.746 900.39 752.414 1001.19 797.292L1236.93 902.252C1263.53 914.095 1294.69 902.131 1306.54 875.533Z" fill="#98FCE4" fill-opacity="0.02" />
		<path d="M1334.6 812.094L1306.39 875.466C1294.58 901.981 1263.52 913.909 1237 902.102L1001.25 797.142C900.374 752.228 782.183 797.597 737.268 898.477L621.585 1158.3C609.78 1184.82 578.712 1196.75 552.195 1184.94L488.823 1156.73C462.307 1144.92 450.382 1113.85 462.187 1087.34L588.027 804.696C666.527 628.38 873.095 549.087 1049.41 627.587L1307.97 742.704C1334.48 754.51 1346.41 785.576 1334.6 812.094Z" stroke="#98FCE4" stroke-width="0.327695" />
	</g>
	<g opacity="0.2" filter="url(#filter2_f_12_6)">
		<path d="M1371.83 1149.58L1414.09 1054.66C1419.13 1043.34 1414.04 1030.08 1402.72 1025.04L977.259 835.618C902.2 802.2 814.263 835.955 780.845 911.014L651.201 1202.2C646.162 1213.52 651.252 1226.78 662.57 1231.82L749.736 1270.63C761.055 1275.66 774.315 1270.57 779.354 1259.26L874.422 1045.73C893.518 1002.84 943.768 983.552 986.658 1002.65L1342.21 1160.95C1353.53 1165.99 1366.79 1160.9 1371.83 1149.58Z" fill="#98FCE4" fill-opacity="0.02" />
		<path d="M1413.94 1054.6L1371.68 1149.51C1366.67 1160.75 1353.51 1165.8 1342.27 1160.8L986.724 1002.5C943.752 983.366 893.405 1002.69 874.272 1045.66L779.205 1259.19C774.203 1270.42 761.039 1275.48 749.803 1270.48L662.637 1231.67C651.401 1226.66 646.349 1213.5 651.351 1202.27L780.994 911.081C814.376 836.105 902.216 802.386 977.192 835.768L1402.65 1025.19C1413.89 1030.2 1418.94 1043.36 1413.94 1054.6Z" stroke="#98FCE4" stroke-width="0.327695" />
	</g>
	<defs>
		<filter id="filter0_f_12_6" x="28.1876" y="206.276" width="1659.71" height="1117.45" filterUnits="userSpaceOnUse" color-interpolation-filters="sRGB">
			<feFlood flood-opacity="0" result="BackgroundImageFix" />
			<feBlend mode="normal" in="SourceGraphic" in2="BackgroundImageFix" result="shape" />
			<feGaussianBlur stdDeviation="1.71814" result="effect1_foregroundBlur_12_6" />
		</filter>
		<filter id="filter1_f_12_6" x="454.03" y="593.688" width="888.729" height="599.41" filterUnits="userSpaceOnUse" color-interpolation-filters="sRGB">
			<feFlood flood-opacity="0" result="BackgroundImageFix" />
			<feBlend mode="normal" in="SourceGraphic" in2="BackgroundImageFix" result="shape" />
			<feGaussianBlur stdDeviation="1.71814" result="effect1_foregroundBlur_12_6" />
		</filter>
		<filter id="filter2_f_12_6" x="645.82" y="819.283" width="773.648" height="456.724" filterUnits="userSpaceOnUse" color-interpolation-filters="sRGB">
			<feFlood flood-opacity="0" result="BackgroundImageFix" />
			<feBlend mode="normal" in="SourceGraphic" in2="BackgroundImageFix" result="shape" />
			<feGaussianBlur stdDeviation="1.71814" result="effect1_foregroundBlur_12_6" />
		</filter>
	</defs>
</svg>
