<svg width="316" height="37" viewBox="0 0 316 37" fill="none" xmlns="http://www.w3.org/2000/svg">
	<g clip-path="url(#clip0_3_70)">
		<path d="M24 15.8522V13.4231C24 12.4034 23.1735 11.5769 22.1538 11.5769H12.243C5.48134 11.5769 0 17.0582 0 23.8199V34.6539C0 35.6735 0.826552 36.5001 1.84615 36.5001H4.2753C5.29491 36.5001 6.12146 35.6735 6.12146 34.6539V24.6943C6.12146 20.8306 9.25366 17.6984 13.1174 17.6984H22.1538C23.1735 17.6984 24 16.8718 24 15.8522Z" fill="#98FCE4" />
		<path d="M12 21.1477V23.5769C12 24.5965 12.8265 25.4231 13.8462 25.4231H23.757C30.5187 25.4231 36 19.9417 36 13.1801V2.34609C36 1.32649 35.1735 0.499939 34.1538 0.499939H31.7247C30.7051 0.499939 29.8785 1.32649 29.8785 2.34609V12.3057C29.8785 16.1694 26.7463 19.3016 22.8826 19.3016H13.8462C12.8265 19.3016 12 20.1282 12 21.1477Z" fill="#98FCE4" />
	</g>
	<path d="M51.1831 17.12V17.76H51.8231V19.68H51.1831V20.96H50.5431V22.88H49.9031V24.16H49.2631V26.72H51.1831V27.36H51.8231V28H42.2231V27.36H42.8631V26.72H44.7831V26.08H45.4231V25.44H46.0631V24.16H46.7031V22.88H47.3431V20.96H47.9831V19.04H48.6231V17.76H49.2631V15.84H49.9031V14.56H50.5431V12.64H51.1831V10.72H51.8231V9.44H52.4631V6.88H50.5431V6.24H49.9031V5.6H59.5031V6.24H58.8631V6.88H56.9431V7.52H56.3031V8.16H55.6631V9.44H55.0231V11.36H54.3831V12.64H53.7431V14.56H53.1031V15.84H63.3431V14.56H63.9831V13.28H64.6231V11.36H65.2631V10.08H65.9031V6.88H64.6231V6.24H63.9831V5.6H72.9431V6.88H70.3831V7.52H69.7431V8.16H69.1031V10.08H68.4631V11.36H67.8231V13.28H67.1831V15.2H66.5431V16.48H65.9031V18.4H65.2631V19.68H64.6231V21.6H63.9831V23.52H63.3431V24.8H62.7031V26.08H63.3431V26.72H64.6231V27.36H65.2631V28H55.6631V27.36H56.3031V26.72H58.8631V26.08H59.5031V24.8H60.1431V22.88H60.7831V21.6H61.4231V19.68H62.0631V18.4H62.7031V17.76H63.9831V17.12H51.1831ZM69.0956 34.4V35.04H64.6156V34.4H63.9756V32.48H64.6156V31.84H65.2556V31.2H65.8956V31.84H67.1756V33.76H66.5356V34.4H67.1756V33.76H69.0956V33.12H70.3756V32.48H71.0156V31.84H71.6556V31.2H72.2956V30.56H72.9356V29.92H73.5756V25.44H72.9356V19.68H72.2956V15.84H71.6556V14.56H71.0156V13.28H72.9356V12.64H74.2156V13.28H74.8556V16.48H75.4956V20.96H76.1356V26.72H75.4956V27.36H76.1356V26.72H76.7756V26.08H77.4156V25.44H78.0556V24.16H78.6956V23.52H79.3356V22.24H79.9756V20.96H80.6156V19.68H81.2556V17.76H81.8956V15.2H80.6156V13.28H81.2556V12.64H83.1756V13.28H83.8156V17.76H83.1756V19.68H82.5356V20.96H81.8956V21.6H81.2556V22.88H80.6156V23.52H79.9756V24.8H79.3356V25.44H78.6956V26.72H78.0556V27.36H77.4156V28H76.7756V28.64H76.1356V29.28H75.4956V29.92H74.8556V30.56H74.2156V31.2H73.5756V31.84H72.9356V32.48H72.2956V33.12H71.6556V33.76H70.3756V34.4H69.0956ZM90.8406 16.48H90.2006V17.76H90.8406V17.12H91.4806V15.84H92.1206V15.2H92.7606V14.56H93.4006V13.92H94.6806V13.28H95.3206V12.64H98.5206V13.28H99.8006V14.56H100.441V15.2H101.081V19.68H100.441V21.6H99.8006V22.88H99.1606V23.52H98.5206V24.8H97.8806V25.44H97.2406V26.08H96.6006V26.72H95.3206V27.36H94.0406V28H89.5606V27.36H87.6406V26.72H87.0006V28.64H86.3606V29.92H85.7206V31.84H85.0806V34.4H87.0006V35.68H78.6806V35.04H79.3206V34.4H81.2406V33.76H81.8806V32.48H82.5206V31.2H83.1606V29.28H83.8006V27.36H84.4406V26.08H85.0806V24.16H85.7206V22.88H86.3606V20.96H87.0006V19.68H87.6406V17.76H88.2806V15.84H88.9206V15.2H88.2806V13.92H87.0006V13.28H90.2006V12.64H92.7606V13.28H92.1206V14.56H91.4806V15.84H90.8406V16.48ZM90.8406 18.4V19.04H90.2006V18.4H89.5606V19.04H90.2006V20.32H89.5606V21.6H88.9206V23.52H88.2806V26.08H89.5606V26.72H92.7606V26.08H94.0406V25.44H94.6806V24.8H95.3206V24.16H95.9606V23.52H96.6006V22.24H97.2406V20.32H97.8806V15.2H97.2406V14.56H94.6806V15.2H94.0406V15.84H92.7606V16.48H92.1206V17.76H91.4806V18.4H90.8406ZM113.227 24.16V24.8H112.587V25.44H111.947V26.08H111.307V26.72H110.667V27.36H110.027V28H104.907V27.36H103.627V26.72H102.987V25.44H102.347V23.52H101.707V22.24H102.347V19.04H102.987V17.76H103.627V16.48H104.267V15.84H104.907V15.2H105.547V14.56H106.187V13.92H107.467V13.28H108.747V12.64H112.587V13.28H113.867V13.92H114.507V14.56H115.147V16.48H114.507V17.12H113.867V17.76H113.227V18.4H112.587V19.04H111.307V19.68H108.747V20.32H104.267V20.96H104.907V22.88H105.547V24.8H106.187V25.44H106.827V26.08H110.667V25.44H111.947V24.8H112.587V24.16H113.227ZM105.547 19.68H106.187V19.04H109.387V18.4H110.667V17.76H111.307V17.12H111.947V16.48H112.587V14.56H111.947V13.92H108.747V14.56H108.107V15.2H107.467V15.84H106.827V17.12H106.187V18.4H105.547V19.68ZM116.424 27.36V28H113.864V26.72H114.504V25.44H115.144V23.52H115.784V22.24H116.424V20.32H117.064V18.4H117.704V17.12H118.344V14.56H117.704V13.92H117.064V13.28H120.264V12.64H122.184V14.56H121.544V15.84H120.904V16.48H120.264V17.12H119.624V18.4H120.264V17.76H120.904V16.48H121.544V15.84H122.184V15.2H122.824V14.56H123.464V13.92H124.104V13.28H125.384V12.64H127.304V13.28H128.584V16.48H127.944V17.12H126.024V16.48H125.384V15.2H126.024V14.56H124.104V15.2H123.464V15.84H122.824V16.48H122.184V17.12H121.544V17.76H120.904V19.04H120.264V19.68H119.624V20.96H118.984V22.88H118.344V24.16H117.704V26.08H117.064V27.36H116.424ZM134.982 27.36V28H127.302V27.36H127.942V26.72H129.222V26.08H129.862V7.52H129.222V6.88H127.942V5.6H131.142V4.96H133.062V26.72H133.702V27.36H134.982ZM138.191 9.44V6.24H141.391V9.44H138.191ZM143.951 27.36V28H135.631V27.36H136.911V26.72H138.191V15.2H137.551V14.56H136.271V13.92H137.551V13.28H140.111V12.64H141.391V26.08H142.031V26.72H142.671V27.36H143.951ZM156.744 24.8H156.104V26.08H155.464V26.72H154.824V27.36H153.544V28H148.424V27.36H147.784V26.72H147.144V26.08H146.504V25.44H145.864V24.16H145.224V18.4H145.864V16.48H146.504V15.84H147.144V15.2H147.784V14.56H148.424V13.92H149.064V13.28H150.344V12.64H154.824V13.28H158.024V12.64H159.304V33.76H159.944V34.4H161.864V35.68H153.544V34.4H155.464V33.76H156.104V26.08H156.744V25.44H157.384V24.16H156.744V24.8ZM150.984 26.08H154.184V25.44H155.464V24.8H156.104V14.56H154.824V13.92H151.624V14.56H150.344V15.2H149.704V15.84H149.064V17.76H148.424V22.88H149.064V24.16H149.704V25.44H150.984V26.08ZM166.329 12.64V25.44H166.969V26.08H170.809V25.44H171.449V24.8H172.089V24.16H172.729V16.48H172.089V15.2H171.449V14.56H170.169V13.92H171.449V13.28H174.649V12.64H175.929V26.72H177.209V27.36H175.929V28H172.729V25.44H173.369V24.8H172.729V25.44H172.089V26.08H171.449V26.72H170.809V27.36H170.169V28H165.049V27.36H164.409V26.72H163.769V26.08H163.129V15.84H162.489V15.2H161.849V14.56H160.569V13.92H162.489V13.28H165.049V12.64H166.329ZM181.052 9.44V6.24H184.252V9.44H181.052ZM186.812 27.36V28H178.492V27.36H179.772V26.72H181.052V15.2H180.412V14.56H179.132V13.92H180.412V13.28H182.972V12.64H184.252V26.08H184.892V26.72H185.532V27.36H186.812ZM196.406 27.36V28H191.286V27.36H190.006V26.72H189.366V26.08H188.726V24.8H188.086V22.24H187.446V20.32H188.086V17.76H188.726V16.48H189.366V15.2H190.006V14.56H190.646V13.92H191.926V13.28H193.206V12.64H197.686V13.28H198.966V7.52H198.326V6.88H197.046V5.6H200.246V4.96H202.166V26.72H204.086V27.36H202.806V28H198.966V25.44H199.606V24.8H198.966V25.44H198.326V26.08H197.686V26.72H197.046V27.36H196.406ZM193.206 26.08H197.046V25.44H198.326V24.8H198.966V15.2H198.326V14.56H197.046V13.92H193.846V14.56H192.566V15.2H191.926V16.48H191.286V17.76H190.646V22.24H191.286V24.16H191.926V24.8H192.566V25.44H193.206V26.08ZM223.919 27.36V28H209.199V26.72H211.759V26.08H212.399V25.44H213.039V23.52H213.679V22.24H214.319V20.32H214.959V19.04H215.599V17.12H216.239V15.2H216.879V13.92H217.519V12H218.159V10.08H218.799V8.8H219.439V7.52H218.799V6.88H217.519V6.24H216.879V5.6H228.399V6.24H229.679V6.88H230.959V7.52H231.599V8.8H232.239V12H231.599V13.28H230.959V13.92H230.319V14.56H229.679V15.2H228.399V15.84H227.119V16.48H227.759V17.12H228.399V17.76H229.039V18.4H229.679V19.04H230.319V22.88H229.679V24.16H229.039V24.8H228.399V25.44H227.759V26.08H227.119V26.72H225.839V27.36H223.919ZM220.079 15.84H224.559V15.2H226.479V14.56H227.119V13.92H227.759V13.28H228.399V12H229.039V9.44H228.399V8.16H227.759V7.52H227.119V6.88H221.999V7.52H222.639V8.8H221.999V10.72H221.359V12H220.719V13.92H220.079V15.84ZM214.319 26.72H221.999V26.08H223.919V25.44H224.559V24.8H225.199V24.16H225.839V23.52H226.479V21.6H227.119V19.68H226.479V18.4H225.839V17.76H225.199V17.12H223.279V16.48H219.439V17.12H218.799V19.04H218.159V20.32H217.519V22.24H216.879V24.16H216.239V25.44H215.599V26.08H214.319V26.72ZM233.508 27.36V28H230.948V26.72H231.588V25.44H232.228V23.52H232.868V22.24H233.508V20.32H234.148V18.4H234.788V17.12H235.428V14.56H234.788V13.92H234.148V13.28H237.348V12.64H239.268V14.56H238.628V15.84H237.988V16.48H237.348V17.12H236.708V18.4H237.348V17.76H237.988V16.48H238.628V15.84H239.268V15.2H239.908V14.56H240.548V13.92H241.188V13.28H242.468V12.64H244.388V13.28H245.668V16.48H245.028V17.12H243.108V16.48H242.468V15.2H243.108V14.56H241.188V15.2H240.548V15.84H239.908V16.48H239.268V17.12H238.628V17.76H237.988V19.04H237.348V19.68H236.708V20.96H236.068V22.88H235.428V24.16H234.788V26.08H234.148V27.36H233.508ZM250.786 9.44V8.16H251.426V6.88H252.066V6.24H255.266V6.88H254.626V8.16H253.986V9.44H250.786ZM248.226 27.36V28H245.026V27.36H244.386V24.8H245.026V23.52H245.666V21.6H246.306V20.32H246.946V18.4H247.586V17.12H248.226V14.56H247.586V13.92H246.946V13.28H250.146V12.64H252.066V14.56H251.426V15.84H250.786V17.12H250.146V19.04H249.506V20.96H248.866V22.24H248.226V24.16H247.586V26.08H249.506V26.72H248.866V27.36H248.226ZM250.146 26.08H249.506V25.44H250.146V24.8H250.786V24.16H251.426V24.8H250.786V25.44H250.146V26.08ZM268.714 8.8V6.88H268.074V6.24H267.434V5.6H271.274V4.96H272.554V6.24H271.914V7.52H271.274V9.44H270.634V11.36H269.994V12.64H269.354V14.56H268.714V15.84H268.074V17.76H267.434V19.04H266.794V20.96H266.154V22.24H265.514V24.16H264.874V26.08H266.794V25.44H267.434V24.8H268.074V24.16H268.714V24.8H268.074V25.44H267.434V26.72H266.154V27.36H265.514V28H262.314V27.36H261.674V26.08H262.314V24.8H262.954V24.16H262.314V24.8H261.674V25.44H261.034V26.08H260.394V26.72H259.754V27.36H258.474V28H254.634V27.36H253.994V26.72H253.354V25.44H252.714V20.96H253.354V19.68H253.994V18.4H254.634V17.12H255.274V16.48H255.914V15.84H256.554V15.2H257.194V14.56H257.834V13.92H259.114V13.28H260.394V12.64H264.234V13.28H265.514V13.92H266.794V12H267.434V10.72H268.074V8.8H268.714ZM256.554 26.08H259.754V25.44H260.394V24.8H261.034V24.16H261.674V23.52H262.314V22.88H262.954V21.6H263.594V20.32H264.234V18.4H264.874V17.12H265.514V15.2H264.874V14.56H264.234V13.92H261.034V14.56H260.394V15.2H259.114V15.84H258.474V17.12H257.834V17.76H257.194V19.04H256.554V20.96H255.914V25.44H256.554V26.08ZM263.594 22.88H262.954V23.52H263.594V22.88ZM284.701 12.64H284.061V13.28H282.781V13.92H282.141V15.2H282.781V15.84H283.421V19.68H282.781V20.96H282.141V21.6H281.501V22.24H280.861V22.88H279.581V23.52H278.301V24.16H275.741V23.52H273.821V24.16H272.541V24.8H271.901V26.08H272.541V26.72H276.381V27.36H280.221V28H281.501V28.64H282.141V29.28H282.781V31.84H282.141V32.48H281.501V33.76H280.221V34.4H279.581V35.04H277.021V35.68H270.621V35.04H268.701V34.4H267.421V33.76H266.781V31.84H267.421V30.56H268.061V29.92H269.341V29.28H270.621V28.64H269.981V28H269.341V25.44H269.981V24.8H270.621V24.16H271.261V23.52H272.541V22.24H271.901V21.6H271.261V19.68H270.621V18.4H271.261V16.48H271.901V15.2H272.541V14.56H273.181V13.92H273.821V13.28H275.741V12.64H279.581V13.28H280.861V13.92H281.501V13.28H282.141V12.64H282.781V12H286.621V14.56H285.981V15.2H284.061V13.28H284.701V12.64ZM275.741 22.88H277.021V22.24H278.301V21.6H278.941V20.96H279.581V20.32H280.221V15.2H279.581V14.56H278.941V13.92H276.381V14.56H275.741V15.2H275.101V15.84H274.461V17.12H273.821V20.96H274.461V22.24H275.741V22.88ZM273.821 22.24H273.181V22.88H273.821V22.24ZM271.261 34.4H277.021V33.76H278.941V33.12H279.581V32.48H280.221V31.2H279.581V30.56H277.021V29.92H273.181V29.28H271.261V29.92H270.621V30.56H269.981V31.2H269.341V33.12H269.981V33.76H271.261V34.4ZM295.579 24.16V24.8H294.939V25.44H294.299V26.08H293.659V26.72H293.019V27.36H292.379V28H287.259V27.36H285.979V26.72H285.339V25.44H284.699V23.52H284.059V22.24H284.699V19.04H285.339V17.76H285.979V16.48H286.619V15.84H287.259V15.2H287.899V14.56H288.539V13.92H289.819V13.28H291.099V12.64H294.939V13.28H296.219V13.92H296.859V14.56H297.499V16.48H296.859V17.12H296.219V17.76H295.579V18.4H294.939V19.04H293.659V19.68H291.099V20.32H286.619V20.96H287.259V22.88H287.899V24.8H288.539V25.44H289.179V26.08H293.019V25.44H294.299V24.8H294.939V24.16H295.579ZM287.899 19.68H288.539V19.04H291.739V18.4H293.019V17.76H293.659V17.12H294.299V16.48H294.939V14.56H294.299V13.92H291.099V14.56H290.459V15.2H289.819V15.84H289.179V17.12H288.539V18.4H287.899V19.68Z" fill="white" />
	<defs>
		<clipPath id="clip0_3_70">
			<rect width="36" height="36" fill="white" transform="translate(0 0.5)" />
		</clipPath>
	</defs>
</svg>
