<svg width="36" height="36" viewBox="0 0 36 36" fill="none" xmlns="http://www.w3.org/2000/svg">
	<path d="M24 15.3523V12.9231C24 11.9035 23.1735 11.077 22.1538 11.077H12.243C5.48134 11.077 0 16.5583 0 23.3199V34.154C0 35.1735 0.826552 36.0001 1.84615 36.0001H4.2753C5.29491 36.0001 6.12146 35.1735 6.12146 34.154V24.1944C6.12146 20.3306 9.25366 17.1984 13.1174 17.1984H22.1538C23.1735 17.1984 24 16.3718 24 15.3523Z" fill="#98FCE4" />
	<path d="M12 20.6478V23.077C12 24.0966 12.8265 24.9231 13.8462 24.9231H23.757C30.5187 24.9231 36 19.4418 36 12.6802V1.84615C36 0.82655 35.1735 0 34.1538 0H31.7247C30.7051 0 29.8785 0.826552 29.8785 1.84615V11.8057C29.8785 15.6695 26.7463 18.8017 22.8826 18.8017H13.8462C12.8265 18.8017 12 19.6283 12 20.6478Z" fill="#98FCE4" />
</svg>
